<svg xmlns="http://www.w3.org/2000/svg" viewBox="0 0 512 512" fill="#ffffff">
  <path d="M256 0c4.6 0 9.2 1 13.4 2.9L457.7 82.8c22 9.3 38.4 31 38.3 57.2c-.5 99.2-41.3 280.7-213.7 363.2c-16.7 8-36.1 8-52.8 0C57.3 420.7 16.5 239.2 16 140c-.1-26.2 16.3-47.9 38.3-57.2L242.7 2.9C246.8 1 251.4 0 256 0z"/>
  <path d="M256 444.4l-.1 0c-2.2 0-4.3-.8-6-2.4L181.1 374c-3.3-3.3-3.3-8.7 0-12.1c3.3-3.3 8.7-3.3 12.1 0l62.8 62.8l95.3-95.3c3.3-3.3 8.7-3.3 12.1 0c3.3 3.3 3.3 8.7 0 12.1L262 442C260.3 443.6 258.2 444.4 256 444.4z" fill="#ffd700"/>
</svg> 